{"glyphs":{"0":{"ha":817,"x_min":51,"x_max":765,"o":"m 51 518 q 151 128 51 277 q 413 -21 251 -21 q 668 140 572 -21 q 765 524 765 300 q 667 909 765 762 q 409 1056 568 1056 q 152 907 253 1056 q 51 518 51 758 m 180 536 q 239 851 179 736 q 410 965 298 965 q 576 839 513 965 q 637 518 638 713 q 577 184 635 310 q 408 58 518 58 q 243 196 306 58 q 180 536 181 334 z "},"1":{"ha":583,"x_min":57,"x_max":539,"o":"m 58 0 l 539 0 l 539 65 l 360 90 l 360 524 l 364 1026 l 342 1051 l 57 1035 l 57 963 l 236 939 l 238 524 l 238 90 l 58 65 l 58 0 z "},"2":{"ha":671,"x_min":8,"x_max":664,"o":"m 8 0 l 664 0 l 664 115 l 115 115 l 108 123 q 171 243 123 185 q 317 366 219 301 q 521 529 419 432 q 622 775 622 626 q 542 980 622 905 q 329 1056 463 1056 q 142 1014 213 1056 q 30 919 71 972 l 30 821 q 154 925 90 886 q 303 965 219 965 q 435 917 386 965 q 485 787 485 870 q 439 614 485 689 q 267 442 393 539 q 82 260 144 347 q 8 85 21 174 l 8 0 z "},"3":{"ha":662,"x_min":3,"x_max":641,"o":"m 3 97 q 136 13 55 44 q 331 -18 218 -18 q 548 57 454 -18 q 641 264 641 131 q 565 458 641 384 q 375 551 490 532 l 375 556 q 554 653 492 594 q 615 822 615 713 q 535 990 615 925 q 338 1056 454 1056 q 168 1030 236 1056 q 44 949 101 1005 l 44 865 q 180 950 120 926 q 313 974 240 974 q 442 931 397 974 q 488 806 488 888 q 419 642 488 699 q 225 579 350 585 l 151 576 l 178 506 l 209 506 q 424 451 340 506 q 508 280 508 397 q 450 121 508 174 q 303 69 391 69 q 144 97 222 69 q 3 188 67 124 l 3 97 z "},"4":{"ha":813,"x_min":4,"x_max":813,"o":"m 18 294 l 467 304 l 467 90 l 302 65 l 302 0 l 748 0 l 748 65 l 590 90 l 590 307 l 813 315 l 813 382 l 590 382 l 594 1026 l 572 1049 l 481 1049 l 4 375 l 18 294 m 120 382 l 116 389 l 465 895 l 461 382 l 120 382 z "},"5":{"ha":676,"x_min":1,"x_max":651,"o":"m 1 97 q 135 13 53 44 q 329 -18 217 -18 q 558 75 465 -18 q 651 338 651 169 q 558 558 651 464 q 260 651 464 651 l 138 624 l 97 549 l 208 549 q 434 491 348 549 q 521 317 521 433 q 463 135 521 197 q 318 74 405 74 q 144 100 222 74 q 1 188 66 126 l 1 97 m 97 549 q 163 626 151 549 q 211 912 176 703 l 218 919 l 589 919 l 596 1042 l 166 1042 l 147 1019 l 97 549 z "},"6":{"ha":817,"x_min":51,"x_max":775,"o":"m 51 453 q 161 108 51 234 q 435 -19 271 -19 q 683 80 590 -19 q 775 330 775 179 q 679 561 775 480 q 433 643 583 643 q 344 623 383 643 q 280 578 306 603 l 299 528 q 354 543 322 535 q 412 551 386 551 q 585 492 524 551 q 645 317 645 434 q 591 130 645 201 q 434 58 537 58 q 251 159 322 58 q 178 440 180 260 q 297 807 176 678 q 619 985 417 937 l 619 1085 q 198 849 345 1019 q 51 453 51 680 z "},"7":{"ha":670,"x_min":17,"x_max":670,"o":"m 17 763 l 101 763 l 126 925 l 508 925 l 532 907 l 366 465 l 178 0 l 178 -51 l 237 -51 l 448 434 l 670 978 l 670 1042 l 17 1042 l 17 763 z "},"8":{"ha":733,"x_min":43,"x_max":690,"o":"m 43 249 q 137 60 43 138 q 374 -18 231 -18 q 598 69 506 -18 q 690 272 690 157 q 616 469 690 390 q 417 611 541 548 q 242 719 285 678 q 200 824 200 760 q 243 935 200 890 q 362 979 285 979 q 481 938 436 979 q 525 825 525 897 q 485 695 525 749 q 374 594 444 641 l 433 553 q 569 682 516 609 q 622 845 622 754 q 551 997 622 938 q 366 1056 480 1056 q 177 990 256 1056 q 99 810 99 924 q 155 636 99 705 q 340 503 210 568 q 514 392 451 447 q 577 254 577 337 q 522 114 577 169 q 364 58 467 58 q 199 116 259 58 q 139 260 139 174 q 202 417 139 349 q 339 535 265 485 l 288 577 q 124 447 205 528 q 43 249 43 365 z "},"9":{"ha":817,"x_min":42,"x_max":765,"o":"m 42 707 q 138 475 42 557 q 383 394 234 394 q 472 414 434 394 q 537 458 510 433 l 518 508 q 463 494 495 501 q 405 486 431 486 q 229 544 292 486 q 165 719 165 603 q 223 907 165 835 q 383 978 280 978 q 563 877 494 978 q 632 597 631 776 q 516 227 634 359 q 200 45 399 94 l 200 -48 q 619 188 474 18 q 765 583 765 357 q 656 929 765 803 q 381 1056 546 1056 q 134 957 226 1056 q 42 707 42 858 z "},"a":{"ha":717,"x_min":26,"x_max":685,"o":"m 26 184 q 83 44 26 99 q 249 -10 139 -10 q 435 52 356 -10 q 513 183 514 115 l 489 183 q 427 108 482 148 q 304 68 372 68 q 195 100 240 68 q 151 194 151 131 q 238 322 151 272 q 483 395 325 372 l 476 451 q 134 339 242 409 q 26 184 26 269 m 58 606 l 92 570 q 167 611 122 593 q 277 628 213 628 q 418 580 370 628 q 465 408 466 531 l 464 113 l 478 42 l 513 0 l 685 0 l 685 56 l 582 80 l 578 401 q 503 641 576 572 q 303 710 430 710 q 140 674 203 710 q 58 606 76 638 z "},"b":{"ha":804,"x_min":0,"x_max":757,"o":"m 0 976 l 116 956 l 124 297 l 116 0 l 174 0 l 233 61 l 232 297 l 234 1043 l 215 1065 l 193 1065 l 0 1042 l 0 976 m 203 97 q 288 25 224 59 q 433 -8 351 -8 q 672 95 587 -8 q 757 368 757 199 q 675 616 757 524 q 467 708 593 708 q 301 663 366 708 q 206 551 235 618 l 229 511 q 308 590 258 559 q 431 621 358 621 q 576 549 522 621 q 629 351 629 478 q 575 140 629 217 q 427 63 522 63 q 303 95 356 63 q 229 170 251 127 l 203 97 z "},"c":{"ha":704,"x_min":44,"x_max":671,"o":"m 44 330 q 140 80 44 176 q 380 -15 235 -15 q 571 29 503 -15 q 671 117 638 73 l 635 158 q 548 99 597 123 q 426 75 499 75 q 244 148 318 75 q 169 344 170 222 q 230 559 169 486 q 376 633 291 633 q 483 604 439 633 q 533 534 526 575 l 617 619 q 519 686 578 663 q 376 710 459 710 q 143 600 242 710 q 44 330 44 490 m 521 590 l 551 449 l 619 449 l 619 696 l 556 696 l 521 590 z "},"d":{"ha":838,"x_min":47,"x_max":803,"o":"m 47 332 q 133 85 47 176 q 344 -6 218 -6 q 514 38 445 -6 q 613 149 583 82 l 589 189 q 506 111 560 141 q 381 81 453 81 q 232 152 289 81 q 175 349 175 222 q 237 554 175 471 q 404 637 299 637 q 520 612 473 637 q 589 544 567 587 l 615 617 q 527 682 594 655 q 386 708 460 708 q 141 605 234 708 q 47 332 47 501 m 462 976 l 578 956 l 585 373 l 584 113 l 598 42 l 633 0 l 803 0 l 803 56 l 700 80 l 694 374 l 696 1043 l 676 1065 l 655 1065 l 462 1042 l 462 976 z "},"e":{"ha":699,"x_min":44,"x_max":679,"o":"m 44 347 q 145 85 44 185 q 408 -15 247 -15 q 560 15 499 -15 q 653 89 621 45 l 618 131 q 535 90 582 104 q 416 75 488 75 q 239 148 308 75 q 169 361 170 222 q 222 558 169 486 q 359 631 274 631 q 505 574 453 631 q 565 408 557 517 l 679 408 q 588 630 665 551 q 376 710 511 710 q 136 604 228 710 q 44 347 44 498 m 150 367 l 679 367 l 679 408 l 642 433 l 150 433 l 150 367 z "},"f":{"ha":436,"x_min":38,"x_max":408,"o":"m 38 0 l 403 0 l 403 56 l 276 80 l 273 366 l 274 955 l 400 979 l 400 1042 l 290 1064 q 193 1030 228 1064 q 158 914 157 997 l 159 683 l 44 657 l 44 606 l 158 597 l 158 366 l 154 80 l 38 56 l 38 0 m 262 606 l 408 606 l 408 676 l 265 676 l 262 606 z "},"g":{"ha":728,"x_min":17,"x_max":744,"o":"m 17 -183 q 103 -311 17 -262 q 351 -360 190 -360 q 651 -291 567 -360 q 734 -124 734 -222 q 650 -9 734 -41 q 388 24 565 24 q 199 44 249 24 q 149 99 149 64 q 172 153 149 133 q 235 193 194 173 l 199 240 q 99 180 140 222 q 58 74 58 138 q 150 -52 58 -15 q 370 -90 241 -90 q 585 -103 542 -90 q 628 -167 628 -116 q 565 -257 628 -226 q 363 -287 502 -287 q 165 -251 228 -287 q 101 -165 101 -215 q 121 -98 101 -124 q 169 -51 141 -72 l 131 -26 q 49 -88 82 -52 q 17 -183 17 -124 m 73 437 q 153 230 73 308 q 360 151 233 151 q 565 236 487 151 q 643 440 643 322 q 564 638 643 567 q 357 710 485 710 q 151 633 230 710 q 73 437 73 556 m 194 444 q 238 584 194 537 q 358 631 281 631 q 476 578 431 631 q 520 436 520 526 q 478 274 520 327 q 357 222 435 222 q 239 279 284 222 q 194 444 194 336 m 433 642 l 744 601 l 744 694 l 423 694 l 433 642 z "},"h":{"ha":874,"x_min":36,"x_max":828,"o":"m 53 0 l 365 0 l 365 56 l 269 80 l 268 366 l 269 1043 l 250 1065 l 228 1065 l 36 1042 l 36 976 l 151 956 l 153 366 l 151 80 l 53 56 l 53 0 m 266 500 q 359 582 301 555 q 472 610 416 610 q 573 572 538 610 q 608 488 608 534 l 608 366 l 607 80 l 497 56 l 497 0 l 828 0 l 828 56 l 725 80 l 722 366 q 723 415 722 366 q 725 516 725 465 q 671 658 725 606 q 510 710 617 710 q 350 664 426 710 q 242 549 274 618 l 266 500 z "},"i":{"ha":444,"x_min":50,"x_max":398,"o":"m 53 0 l 398 0 l 398 56 l 288 80 l 287 366 l 292 667 l 276 694 l 243 694 l 50 671 l 50 606 l 167 585 l 172 366 l 170 80 l 53 56 l 53 0 m 138 928 q 162 867 138 890 q 226 843 186 843 q 291 865 268 843 q 313 928 313 888 q 289 990 313 967 q 226 1014 265 1014 q 161 992 183 1014 q 138 928 138 969 z "},"j":{"ha":386,"x_min":28,"x_max":294,"o":"m 28 -319 l 138 -342 q 235 -308 199 -342 q 270 -192 270 -274 l 269 366 l 273 667 l 257 694 l 224 694 l 31 671 l 31 606 l 148 585 l 152 366 l 153 -233 l 28 -257 l 28 -319 m 119 928 q 143 867 119 890 q 207 843 167 843 q 272 865 249 843 q 294 928 294 888 q 270 990 294 967 q 207 1014 247 1014 q 142 992 165 1014 q 119 928 119 969 z "},"k":{"ha":744,"x_min":36,"x_max":758,"o":"m 53 0 l 365 0 l 365 56 l 269 80 l 268 352 l 269 1043 l 250 1065 l 228 1065 l 36 1042 l 36 976 l 151 956 l 153 366 l 151 80 l 53 56 l 53 0 m 247 292 l 610 608 l 720 632 l 720 694 l 410 694 l 410 632 l 513 611 l 241 367 l 247 292 m 318 408 l 544 80 l 575 17 l 599 0 l 758 0 l 758 56 l 683 80 l 406 476 l 318 408 z "},"l":{"ha":439,"x_min":36,"x_max":393,"o":"m 53 0 l 393 0 l 393 56 l 283 80 l 282 366 l 283 1042 l 267 1064 l 242 1065 l 36 1042 l 36 976 l 165 956 l 167 366 l 165 80 l 53 56 l 53 0 z "},"m":{"ha":1331,"x_min":53,"x_max":1285,"o":"m 53 0 l 369 0 l 369 56 l 273 80 l 272 366 l 273 606 l 256 676 l 231 694 l 53 671 l 53 606 l 156 585 l 157 366 l 156 80 l 53 56 l 53 0 m 269 499 q 357 579 302 549 q 475 609 412 609 q 573 575 533 609 q 612 488 612 542 l 612 366 l 610 80 l 501 56 l 501 0 l 831 0 l 831 56 l 728 80 l 725 366 q 727 415 725 366 q 728 515 728 464 q 675 657 728 606 q 514 709 621 709 q 353 663 429 709 q 246 549 277 617 l 269 499 m 723 499 q 810 579 756 549 q 928 609 864 609 q 1028 575 992 609 q 1065 488 1065 542 l 1065 366 l 1064 80 l 954 56 l 954 0 l 1285 0 l 1285 56 l 1182 80 l 1178 366 q 1180 415 1178 366 q 1182 515 1182 464 q 1128 657 1182 606 q 967 709 1074 709 q 807 663 883 709 q 699 549 731 617 l 723 499 z "},"n":{"ha":878,"x_min":53,"x_max":832,"o":"m 53 0 l 369 0 l 369 56 l 274 80 l 272 366 l 274 606 l 256 676 l 232 694 l 53 671 l 53 606 l 156 585 l 157 366 l 156 80 l 53 56 l 53 0 m 270 499 q 357 578 301 548 q 476 609 413 609 q 575 577 538 609 q 613 488 613 545 l 613 366 l 611 80 l 501 56 l 501 0 l 832 0 l 832 56 l 729 80 l 726 366 q 727 415 726 366 q 729 515 729 464 q 675 657 729 606 q 515 709 622 709 q 354 663 430 709 q 247 549 278 617 l 270 499 z "},"o":{"ha":811,"x_min":44,"x_max":767,"o":"m 44 347 q 145 85 44 185 q 408 -15 247 -15 q 668 93 569 -15 q 767 351 767 201 q 666 611 767 512 q 404 710 566 710 q 144 604 243 710 q 44 347 44 498 m 169 361 q 230 558 169 486 q 404 629 290 629 q 574 551 510 629 q 638 351 638 472 q 576 141 638 220 q 403 61 515 61 q 234 148 298 61 q 169 361 170 235 z "},"p":{"ha":832,"x_min":39,"x_max":785,"o":"m 42 -333 l 365 -333 l 365 -278 l 260 -253 l 258 297 l 260 606 l 242 676 l 218 694 l 39 671 l 39 606 l 142 585 l 143 297 l 142 -253 l 42 -278 l 42 -333 m 230 97 q 315 25 251 59 q 470 -8 378 -8 q 699 95 614 -8 q 785 368 785 199 q 702 616 785 524 q 494 708 620 708 q 328 663 393 708 q 233 551 263 618 l 256 511 q 336 590 285 559 q 458 621 387 621 q 603 549 549 621 q 657 351 657 478 q 603 140 657 217 q 454 63 549 63 q 331 95 383 63 q 256 170 278 127 l 230 97 z "},"q":{"ha":825,"x_min":47,"x_max":797,"o":"m 47 332 q 133 85 47 176 q 344 -6 218 -6 q 514 38 445 -6 q 613 149 583 82 l 589 189 q 506 111 560 141 q 381 81 453 81 q 232 152 289 81 q 175 349 175 222 q 237 554 175 471 q 398 637 299 637 q 520 612 473 637 q 589 544 567 587 l 615 617 q 527 682 594 655 q 386 708 460 708 q 141 605 234 708 q 47 332 47 501 m 452 -333 l 796 -333 l 796 -278 l 690 -253 l 690 297 l 694 589 l 797 613 l 797 677 l 627 701 l 578 636 l 577 152 l 572 -253 l 452 -278 l 452 -333 z "},"r":{"ha":600,"x_min":53,"x_max":582,"o":"m 53 0 l 383 0 l 383 56 l 274 80 l 272 366 l 274 606 l 256 676 l 232 694 l 53 671 l 53 606 l 156 585 l 157 366 l 156 80 l 53 56 l 53 0 m 256 492 q 363 576 300 549 q 483 602 426 602 l 507 514 l 582 514 l 582 694 l 514 694 q 335 649 406 694 q 233 535 264 603 l 256 492 z "},"s":{"ha":606,"x_min":36,"x_max":572,"o":"m 36 0 l 99 0 l 143 82 l 110 235 l 36 235 l 36 0 m 62 527 q 105 407 62 451 q 263 329 149 363 q 421 267 376 296 q 465 181 465 239 q 422 91 465 123 q 309 59 378 59 q 188 93 243 59 q 118 170 133 127 l 54 128 q 165 25 105 63 q 326 -14 224 -14 q 505 49 438 -14 q 572 199 572 111 q 508 348 572 300 q 337 426 444 397 q 198 481 228 457 q 167 549 167 506 q 196 616 167 590 q 288 642 225 642 q 383 621 337 642 q 452 581 429 601 l 485 637 q 412 688 457 665 q 285 710 367 710 q 117 657 172 710 q 62 527 62 603 m 413 614 l 440 489 l 513 489 l 513 694 l 450 694 l 413 614 z "},"t":{"ha":425,"x_min":11,"x_max":396,"o":"m 11 606 l 124 597 l 124 366 l 119 113 q 142 23 119 51 q 218 -6 165 -6 l 380 20 l 380 76 l 281 76 l 247 115 l 241 366 l 253 792 l 230 819 l 197 819 q 134 726 174 776 q 11 657 93 676 l 11 606 m 215 606 l 396 606 l 396 676 l 217 676 l 215 606 z "},"u":{"ha":864,"x_min":39,"x_max":818,"o":"m 39 606 l 142 585 l 145 328 q 143 280 145 328 q 142 179 142 231 q 195 37 142 89 q 356 -15 249 -15 q 517 31 441 -15 q 624 146 593 77 l 601 188 q 508 106 565 133 q 395 78 451 78 q 294 116 329 78 q 258 200 258 154 l 258 328 l 260 669 l 242 694 l 218 694 l 39 671 l 39 606 m 501 606 l 597 585 l 599 328 l 597 104 l 615 19 l 639 0 l 818 24 l 818 82 l 715 103 l 714 328 l 715 669 l 698 694 l 674 694 l 501 671 l 501 606 z "},"v":{"ha":726,"x_min":-7,"x_max":733,"o":"m -7 632 l 75 608 l 185 334 l 314 -6 l 399 -6 l 528 345 l 631 608 l 733 632 l 733 694 l 444 694 l 444 632 l 540 611 l 456 374 l 369 145 l 280 372 l 195 606 l 288 632 l 288 694 l -7 694 l -7 632 z "},"w":{"ha":1106,"x_min":-7,"x_max":1113,"o":"m -7 632 l 75 608 l 184 331 l 308 -6 l 390 -6 l 498 288 l 591 533 l 533 603 l 440 329 l 365 131 l 276 363 l 195 606 l 288 632 l 288 694 l -7 694 l -7 632 m 387 632 l 469 608 l 590 300 l 702 -6 l 784 -6 l 906 340 l 1010 608 l 1113 632 l 1113 694 l 832 694 l 832 632 l 927 611 l 844 369 l 754 133 l 678 330 l 584 606 l 676 632 l 676 694 l 387 694 l 387 632 z "},"x":{"ha":724,"x_min":11,"x_max":724,"o":"m 11 0 l 300 0 l 300 56 l 212 76 l 383 326 l 388 333 l 596 608 l 699 632 l 699 694 l 410 694 l 410 632 l 505 611 l 347 387 l 338 374 l 121 80 l 11 56 l 11 0 m 14 632 l 96 608 l 328 316 l 510 81 l 424 56 l 424 0 l 724 0 l 724 56 l 635 80 l 395 388 l 222 606 l 307 632 l 307 694 l 14 694 l 14 632 z "},"y":{"ha":726,"x_min":-7,"x_max":733,"o":"m -7 632 l 75 608 l 185 334 l 314 -6 l 266 -135 q 186 -235 237 -214 q 97 -257 135 -257 l 27 -257 l 27 -319 l 137 -342 q 248 -309 199 -342 q 326 -199 297 -276 l 528 345 l 631 608 l 733 632 l 733 694 l 444 694 l 444 632 l 540 611 l 456 374 l 369 145 l 280 372 l 195 606 l 288 632 l 288 694 l -7 694 l -7 632 z "},"z":{"ha":615,"x_min":22,"x_max":591,"o":"m 22 0 l 591 0 l 591 181 l 516 181 l 497 81 l 158 81 l 580 633 l 580 694 l 42 694 l 42 514 l 117 514 l 135 614 l 435 614 l 22 63 l 22 0 z "},"A":{"ha":1046,"x_min":-17,"x_max":1063,"o":"m -17 0 l 341 0 l 341 69 l 218 90 l 304 349 l 503 864 l 713 346 l 803 91 l 678 69 l 678 0 l 1063 0 l 1063 69 l 940 94 l 810 416 l 563 1047 l 478 1047 l 226 375 l 113 94 l -17 69 l -17 0 m 249 311 l 782 311 l 760 394 l 524 387 l 278 394 l 249 311 z "},"B":{"ha":881,"x_min":57,"x_max":828,"o":"m 57 0 l 487 0 q 738 85 647 0 q 828 301 828 171 q 761 485 828 419 q 599 572 694 551 l 599 576 q 720 657 676 593 q 765 814 765 720 q 694 977 765 913 q 476 1042 623 1042 l 57 1042 l 57 963 l 201 939 l 203 544 l 201 94 l 57 69 l 57 0 m 326 94 l 325 503 l 325 513 l 494 513 q 646 459 593 513 q 699 306 699 406 q 638 134 699 188 q 448 80 577 80 l 356 80 l 326 94 m 325 608 l 328 939 l 348 951 l 447 951 q 591 911 542 951 q 640 784 640 872 q 589 640 640 688 q 440 592 539 592 l 324 592 l 325 608 z "},"C":{"ha":1004,"x_min":56,"x_max":1000,"o":"m 56 518 q 209 125 56 270 q 592 -21 363 -21 q 820 28 713 -21 q 1000 170 928 76 l 933 228 q 805 120 888 163 q 603 77 722 77 q 306 197 423 77 q 188 538 190 317 q 295 851 187 737 q 593 965 403 965 q 733 944 665 965 q 850 885 802 924 l 926 964 q 774 1032 863 1008 q 592 1056 686 1056 q 207 899 358 1056 q 56 518 56 742 m 810 918 l 852 716 l 931 716 l 931 1033 l 866 1033 l 810 918 z "},"D":{"ha":1104,"x_min":57,"x_max":1049,"o":"m 57 0 l 471 0 q 898 142 747 0 q 1049 540 1049 285 q 897 909 1049 777 q 499 1042 746 1042 l 57 1042 l 57 963 l 201 939 l 203 524 l 201 94 l 57 69 l 57 0 m 326 90 l 325 524 l 326 943 q 398 951 351 947 q 479 955 444 955 q 798 845 678 955 q 916 528 917 735 q 810 191 915 305 q 505 78 705 78 q 401 82 453 78 q 326 90 350 86 z "},"E":{"ha":875,"x_min":57,"x_max":861,"o":"m 57 0 l 833 0 l 861 263 l 785 263 l 732 75 l 374 75 l 326 92 l 324 544 l 326 946 l 374 960 l 688 960 l 713 800 l 789 800 l 789 1042 l 57 1042 l 57 963 l 201 939 l 203 544 l 201 95 l 57 69 l 57 0 m 265 513 l 587 506 l 611 394 l 688 394 l 688 697 l 611 697 l 587 586 l 265 579 l 265 513 z "},"F":{"ha":782,"x_min":57,"x_max":768,"o":"m 57 0 l 485 0 l 485 69 l 326 92 l 325 528 l 326 946 l 374 960 l 667 960 l 692 793 l 768 793 l 768 1042 l 57 1042 l 57 963 l 201 939 l 203 528 l 201 95 l 57 69 l 57 0 m 264 492 l 566 488 l 590 363 l 667 363 l 667 686 l 590 686 l 566 568 l 264 563 l 264 492 z "},"G":{"ha":1099,"x_min":56,"x_max":1090,"o":"m 56 517 q 209 126 56 274 q 605 -21 363 -21 q 843 32 740 -21 q 999 152 947 85 l 928 209 q 799 104 880 142 q 616 66 718 66 q 303 198 417 66 q 188 533 190 330 q 295 848 187 734 q 593 961 403 961 q 736 941 665 961 q 856 883 808 921 l 926 964 q 774 1032 863 1008 q 592 1056 686 1056 q 207 899 358 1056 q 56 517 56 742 m 742 388 l 881 363 l 881 121 l 999 152 l 999 363 l 1090 388 l 1090 457 l 742 457 l 742 388 m 810 920 l 852 723 l 931 723 l 931 1033 l 859 1033 l 810 920 z "},"H":{"ha":1208,"x_min":57,"x_max":1151,"o":"m 57 0 l 471 0 l 471 69 l 326 94 l 325 524 l 326 939 l 471 963 l 471 1042 l 57 1042 l 57 963 l 201 939 l 203 524 l 201 94 l 57 69 l 57 0 m 264 497 l 604 497 l 944 497 l 944 589 l 604 583 l 264 589 l 264 497 m 738 0 l 1151 0 l 1151 69 l 1007 94 l 1006 524 l 1007 939 l 1151 963 l 1151 1042 l 738 1042 l 738 963 l 882 939 l 883 524 l 882 94 l 738 69 l 738 0 z "},"I":{"ha":542,"x_min":57,"x_max":485,"o":"m 57 0 l 485 0 l 485 69 l 333 94 l 332 524 l 333 939 l 485 963 l 485 1042 l 57 1042 l 57 963 l 208 939 l 210 524 l 208 94 l 57 69 l 57 0 z "},"J":{"ha":458,"x_min":11,"x_max":458,"o":"m 11 0 q 67 -8 37 -6 q 132 -10 97 -10 q 270 67 213 -10 q 326 312 328 144 l 325 524 l 326 939 l 458 963 l 458 1042 l 36 1042 l 36 963 l 201 939 l 203 524 l 204 248 q 169 109 205 149 q 60 69 134 69 l 11 69 l 11 0 z "},"K":{"ha":1000,"x_min":57,"x_max":1025,"o":"m 57 0 l 471 0 l 471 69 l 326 94 l 325 524 l 326 939 l 471 963 l 471 1042 l 57 1042 l 57 963 l 201 939 l 203 524 l 201 94 l 57 69 l 57 0 m 264 334 l 842 929 l 965 963 l 965 1042 l 621 1042 l 621 963 l 723 929 l 264 440 l 264 334 m 433 563 l 772 94 l 655 69 l 655 0 l 1025 0 l 1025 69 l 916 94 l 512 649 l 433 563 z "},"L":{"ha":878,"x_min":57,"x_max":878,"o":"m 57 0 l 842 0 l 878 290 l 793 290 l 733 75 l 354 75 l 326 94 l 325 524 l 326 939 l 494 963 l 494 1042 l 57 1042 l 57 963 l 201 939 l 203 524 l 201 92 l 57 69 l 57 0 z "},"M":{"ha":1469,"x_min":57,"x_max":1413,"o":"m 57 0 l 438 0 l 438 69 l 287 94 l 285 524 l 287 926 l 462 515 l 670 -6 l 755 -6 l 969 521 l 1143 923 l 1144 524 l 1143 94 l 978 69 l 978 0 l 1413 0 l 1413 69 l 1268 94 l 1267 524 l 1268 939 l 1413 963 l 1413 1042 l 1083 1042 l 888 558 l 730 178 l 570 563 l 378 1042 l 57 1042 l 57 963 l 201 939 l 203 524 l 201 94 l 57 69 l 57 0 z "},"N":{"ha":1118,"x_min":57,"x_max":1068,"o":"m 57 0 l 436 0 l 436 69 l 285 94 l 283 524 l 285 911 l 522 519 l 835 0 l 919 0 l 922 524 l 924 939 l 1068 963 l 1068 1042 l 682 1042 l 682 963 l 840 939 l 842 524 l 840 226 l 622 573 l 353 1042 l 57 1042 l 57 963 l 201 939 l 203 524 l 201 94 l 57 69 l 57 0 z "},"O":{"ha":1156,"x_min":56,"x_max":1100,"o":"m 56 512 q 204 127 56 275 q 581 -22 352 -22 q 957 136 815 -22 q 1100 522 1100 294 q 956 909 1100 762 q 578 1056 812 1056 q 200 899 344 1056 q 56 512 56 742 m 188 535 q 289 845 188 731 q 579 958 390 958 q 861 833 755 958 q 967 517 967 708 q 868 186 967 303 q 579 70 769 70 q 297 201 406 70 q 188 535 188 332 z "},"P":{"ha":881,"x_min":57,"x_max":846,"o":"m 57 0 l 485 0 l 485 69 l 326 92 l 325 531 l 327 944 l 351 960 l 481 960 q 651 906 592 960 q 710 744 710 852 q 648 561 710 627 q 467 494 586 494 q 357 498 397 494 q 276 510 317 501 l 269 436 q 361 423 302 431 q 495 416 419 416 q 754 509 662 416 q 846 744 846 601 q 759 967 846 892 q 506 1042 672 1042 l 57 1042 l 57 963 l 201 939 l 203 524 l 201 95 l 57 69 l 57 0 z "},"Q":{"ha":1156,"x_min":56,"x_max":1100,"o":"m 56 518 q 202 139 56 291 q 578 -14 349 -14 q 944 133 788 -14 q 1100 524 1100 281 q 950 909 1100 762 q 578 1056 799 1056 q 206 899 356 1056 q 56 518 56 742 m 188 536 q 288 846 187 733 q 579 958 390 958 q 862 834 755 958 q 967 519 969 710 q 865 191 966 315 q 576 67 763 67 q 296 202 403 67 q 188 536 190 338 m 165 -156 l 213 -200 q 292 -149 252 -164 q 375 -135 333 -135 l 860 -298 q 1002 -249 952 -298 q 1087 -128 1052 -200 l 1024 -92 q 969 -160 1001 -129 q 896 -190 938 -190 l 394 -27 q 271 -59 333 -27 q 165 -156 208 -91 m 335 -85 l 411 -117 l 490 -3 q 501 11 498 6 q 510 26 505 17 q 476 46 489 40 q 438 58 463 52 q 424 45 428 50 q 417 29 421 40 l 335 -85 z "},"R":{"ha":972,"x_min":57,"x_max":990,"o":"m 57 0 l 476 0 l 476 69 l 326 94 l 325 524 l 328 947 l 348 960 l 475 960 q 613 915 570 960 q 656 790 656 870 q 606 642 656 698 q 449 587 557 587 l 344 587 l 264 587 l 264 521 q 379 514 303 517 q 502 511 455 511 q 706 591 619 511 q 792 798 792 671 q 722 977 792 913 q 503 1042 651 1042 l 57 1042 l 57 963 l 201 939 l 203 524 l 201 94 l 57 69 l 57 0 m 444 521 l 760 52 l 813 0 l 990 0 l 990 69 q 900 95 951 70 q 784 219 850 120 l 537 589 l 444 521 z "},"S":{"ha":772,"x_min":36,"x_max":736,"o":"m 36 0 l 108 0 l 158 119 l 117 336 l 36 336 l 36 0 m 63 788 q 127 614 63 677 q 342 503 191 551 q 552 408 479 460 q 625 257 625 355 q 568 124 625 176 q 422 71 512 71 q 235 115 316 71 q 135 226 154 159 l 59 177 q 205 34 124 83 q 415 -16 285 -16 q 647 72 558 -16 q 736 290 736 160 q 645 492 736 418 q 427 610 555 567 q 228 705 283 658 q 174 814 174 751 q 219 922 174 882 q 359 963 265 963 q 495 940 439 963 q 589 888 551 918 l 642 964 q 514 1032 587 1009 q 356 1056 442 1056 q 139 978 216 1056 q 63 788 63 901 m 553 913 l 588 730 l 667 730 l 667 1033 l 595 1033 l 553 913 z "},"T":{"ha":894,"x_min":28,"x_max":867,"o":"m 28 731 l 104 731 l 128 960 l 378 960 l 385 946 l 386 524 l 385 94 l 233 69 l 233 0 l 660 0 l 660 69 l 510 94 l 508 524 l 510 946 l 523 960 l 766 960 l 790 731 l 867 731 l 867 1042 l 28 1042 l 28 731 z "},"U":{"ha":1133,"x_min":51,"x_max":1097,"o":"m 51 963 l 196 939 l 197 551 l 196 334 q 299 73 194 168 q 582 -22 403 -22 q 852 70 748 -22 q 953 342 956 162 l 951 551 l 953 939 l 1097 963 l 1097 1042 l 704 1042 l 704 963 l 856 939 l 857 551 l 856 343 q 787 132 855 197 q 592 67 719 67 q 385 129 449 67 q 321 329 321 191 l 318 551 l 322 939 l 465 963 l 465 1042 l 51 1042 l 51 963 z "},"V":{"ha":990,"x_min":-21,"x_max":1025,"o":"m -21 963 l 96 935 l 260 514 l 460 -6 l 544 -6 l 744 524 l 901 935 l 1025 963 l 1025 1042 l 674 1042 l 674 963 l 803 939 l 664 559 l 526 178 l 377 556 l 233 934 l 350 963 l 350 1042 l -21 1042 l -21 963 z "},"W":{"ha":1460,"x_min":-21,"x_max":1494,"o":"m -21 963 l 96 935 l 253 514 l 440 -6 l 520 -6 l 710 524 l 770 691 l 719 833 l 628 559 l 497 178 l 364 556 l 233 934 l 364 963 l 364 1042 l -21 1042 l -21 963 m 499 968 l 615 941 l 765 510 l 937 -6 l 1022 -6 l 1213 528 l 1364 935 l 1494 963 l 1494 1042 l 1122 1042 l 1122 963 l 1259 939 l 1132 558 l 997 178 l 873 556 l 753 940 l 869 968 l 869 1042 l 499 1042 l 499 968 z "},"X":{"ha":935,"x_min":-14,"x_max":963,"o":"m -14 0 l 331 0 l 331 69 l 208 90 l 478 526 l 485 526 l 769 941 l 893 963 l 893 1042 l 542 1042 l 542 963 l 665 944 l 441 590 l 434 590 l 103 94 l -14 69 l -14 0 m 21 963 l 131 941 l 420 515 l 705 94 l 585 69 l 585 0 l 963 0 l 963 69 l 846 94 l 497 601 l 272 940 l 392 963 l 392 1042 l 21 1042 l 21 963 z "},"Y":{"ha":879,"x_min":-21,"x_max":900,"o":"m -21 963 l 92 944 l 249 678 l 380 449 l 378 94 l 225 69 l 225 0 l 655 0 l 655 69 l 503 94 l 502 453 l 641 702 l 783 944 l 900 963 l 900 1042 l 547 1042 l 547 963 l 676 943 l 574 749 l 461 544 l 346 733 l 236 938 l 345 963 l 345 1042 l -21 1042 l -21 963 z "},"Z":{"ha":810,"x_min":28,"x_max":796,"o":"m 49 0 l 768 0 l 796 263 l 719 263 l 667 75 l 188 75 l 178 86 l 438 489 l 751 978 l 751 1042 l 56 1042 l 56 735 l 140 735 l 165 960 l 592 960 l 602 949 l 343 544 l 28 64 l 49 0 z "},"!":{"ha":419,"x_min":110,"x_max":310,"o":"m 110 84 q 138 15 110 44 q 210 -15 166 -15 q 282 15 253 -15 q 310 84 310 44 q 282 154 310 124 q 210 184 253 184 q 138 154 166 184 q 110 84 110 124 m 144 1056 l 152 769 l 167 556 l 176 302 l 242 302 l 251 556 l 267 769 l 276 1056 l 144 1056 z "},"\"":{"ha":676,"x_min":117,"x_max":560,"o":"m 183 669 l 221 669 l 289 988 q 268 1052 289 1022 q 203 1082 247 1082 q 138 1052 159 1082 q 117 988 117 1022 l 183 669 m 454 669 l 492 669 l 560 988 q 539 1052 560 1022 q 474 1082 517 1082 q 409 1052 430 1082 q 388 988 388 1022 l 454 669 z "},"#":{"ha":919,"x_min":14,"x_max":906,"o":"m 14 317 l 833 317 l 833 436 l 14 436 l 14 317 m 87 594 l 906 594 l 906 714 l 87 714 l 87 594 m 60 -40 l 136 -60 l 547 1054 l 470 1075 l 60 -40 m 378 -40 l 455 -60 l 865 1054 l 789 1075 l 378 -40 z "},"$":{"ha":769,"x_min":39,"x_max":730,"o":"m 39 189 q 178 50 91 99 q 403 1 265 1 q 639 86 549 1 q 730 299 730 172 q 652 488 730 422 q 428 606 574 554 q 240 702 285 657 q 195 807 195 747 q 244 913 195 874 q 388 952 294 952 q 527 931 467 952 q 624 880 586 909 l 677 953 q 546 1020 622 997 q 385 1042 470 1042 q 164 967 244 1042 q 84 782 84 892 q 151 613 84 677 q 359 502 218 548 q 549 412 480 463 q 619 266 619 361 q 561 136 619 188 q 401 85 503 85 q 226 131 296 85 q 119 240 157 177 l 39 189 m 341 -132 l 456 -97 l 456 36 l 441 36 l 441 540 l 355 569 l 355 36 l 341 36 l 341 -132 m 340 1090 l 340 985 l 355 985 l 355 569 l 441 540 l 441 985 l 456 985 l 456 1117 l 340 1090 z "},"%":{"ha":1415,"x_min":51,"x_max":1364,"o":"m 51 737 q 128 506 51 594 q 328 417 205 417 q 525 513 450 417 q 600 741 600 608 q 524 970 600 883 q 324 1057 447 1057 q 127 964 202 1057 q 51 737 51 870 m 165 749 q 205 914 164 853 q 324 974 247 974 q 440 908 397 974 q 483 741 483 842 q 442 564 483 631 q 324 498 401 498 q 208 571 251 498 q 165 749 165 644 m 265 17 l 335 -28 l 1140 1017 l 1069 1062 l 265 17 m 815 299 q 892 68 815 156 q 1092 -21 969 -21 q 1289 75 1214 -21 q 1364 303 1364 170 q 1288 532 1364 444 q 1088 619 1211 619 q 891 525 966 619 q 815 299 815 432 m 928 310 q 969 475 928 415 q 1088 535 1010 535 q 1204 469 1161 535 q 1247 303 1247 403 q 1206 126 1247 192 q 1088 60 1165 60 q 972 133 1015 60 q 928 310 928 206 z "},"&":{"ha":835,"x_min":36,"x_max":806,"o":"m 36 270 q 142 62 36 140 q 416 -16 247 -16 q 611 33 517 -16 q 766 177 705 82 l 704 226 q 610 115 679 159 q 405 71 540 71 q 225 124 289 71 q 161 278 161 176 q 243 449 161 388 q 436 510 326 510 q 488 519 472 510 q 503 553 503 528 q 496 595 503 591 q 463 599 489 599 q 272 654 336 599 q 208 800 208 708 q 254 916 208 866 q 385 966 300 966 q 534 938 477 966 q 622 882 592 910 l 676 964 q 549 1032 622 1009 q 391 1056 476 1056 q 173 984 251 1056 q 96 800 96 913 q 162 620 96 682 q 340 549 228 558 q 132 460 228 532 q 36 270 36 389 m 588 913 l 623 730 l 702 730 l 702 1033 l 630 1033 l 588 913 m 683 119 l 733 0 l 806 0 l 806 336 l 725 336 l 683 119 z "},"'":{"ha":406,"x_min":117,"x_max":289,"o":"m 183 669 l 221 669 l 289 988 q 268 1052 289 1022 q 203 1082 247 1082 q 138 1052 159 1082 q 117 988 117 1022 l 183 669 z "},"(":{"ha":415,"x_min":47,"x_max":401,"o":"m 47 467 q 145 120 47 285 q 353 -126 244 -46 l 401 -83 q 248 153 313 4 q 183 467 183 303 q 249 778 183 631 q 401 1017 315 926 l 353 1060 q 145 810 244 979 q 47 467 47 641 z "},")":{"ha":415,"x_min":14,"x_max":368,"o":"m 368 467 q 270 810 368 641 q 62 1060 172 979 l 14 1017 q 166 778 100 926 q 233 467 233 631 q 168 153 233 303 q 14 -83 103 4 l 62 -126 q 270 120 172 -46 q 368 467 368 285 z "},"*":{"ha":596,"x_min":7,"x_max":589,"o":"m 298 461 q 361 489 342 461 q 370 555 381 516 l 317 735 l 321 738 l 449 601 q 509 577 472 576 q 567 616 545 578 q 572 686 589 654 q 522 726 554 718 l 340 770 l 339 774 l 522 817 q 572 857 554 825 q 567 926 589 889 q 509 966 545 965 q 449 942 472 967 l 320 806 l 316 808 l 370 988 q 360 1055 382 1027 q 298 1082 339 1082 q 236 1056 258 1082 q 226 988 214 1029 l 278 808 l 275 806 l 147 942 q 87 966 124 967 q 29 927 51 965 q 24 857 7 889 q 74 817 42 825 l 256 773 l 257 769 l 74 726 q 24 686 42 718 q 29 617 7 654 q 87 577 51 578 q 147 601 124 576 l 276 738 l 280 735 l 226 555 q 235 489 214 516 q 298 461 257 461 z "},"+":{"ha":711,"x_min":56,"x_max":656,"o":"m 56 386 l 656 386 l 656 492 l 56 492 l 56 386 m 300 139 l 411 139 l 411 739 l 300 739 l 300 139 z "},",":{"ha":406,"x_min":97,"x_max":303,"o":"m 97 -158 l 127 -192 q 249 -79 195 -151 q 303 78 303 -7 q 273 158 303 131 q 203 184 244 184 q 131 154 159 184 q 103 84 103 124 q 131 17 103 43 q 208 -9 158 -9 q 161 -97 197 -56 q 97 -158 125 -137 z "},"-":{"ha":513,"x_min":56,"x_max":458,"o":"m 56 386 l 257 389 l 458 386 l 458 492 l 257 489 l 56 492 l 56 386 z "},".":{"ha":406,"x_min":103,"x_max":303,"o":"m 103 84 q 131 15 103 44 q 203 -15 159 -15 q 275 15 247 -15 q 303 84 303 44 q 275 154 303 124 q 203 184 247 184 q 131 154 159 184 q 103 84 103 124 z "},"/":{"ha":456,"x_min":-28,"x_max":476,"o":"m -28 -87 l 49 -108 l 476 1054 l 400 1075 l -28 -87 z "},":":{"ha":461,"x_min":131,"x_max":331,"o":"m 131 84 q 159 15 131 44 q 231 -15 187 -15 q 302 15 274 -15 q 331 84 331 44 q 302 154 331 124 q 231 184 274 184 q 159 154 187 184 q 131 84 131 124 m 131 621 q 159 551 131 581 q 231 522 187 522 q 302 551 274 522 q 331 621 331 581 q 302 691 331 661 q 231 721 274 721 q 159 691 187 721 q 131 621 131 661 z "},";":{"ha":456,"x_min":125,"x_max":331,"o":"m 125 -158 l 155 -192 q 277 -79 223 -151 q 331 78 331 -7 q 301 158 331 131 q 231 184 272 184 q 159 154 187 184 q 131 84 131 124 q 158 17 131 43 q 235 -9 186 -9 q 189 -97 225 -56 q 125 -158 153 -137 m 131 621 q 159 551 131 581 q 231 522 187 522 q 302 551 274 522 q 331 621 331 581 q 302 691 331 661 q 231 721 274 721 q 159 691 187 721 q 131 621 131 661 z "},"<":{"ha":487,"x_min":28,"x_max":478,"o":"m 28 440 q 180 309 28 440 q 375 141 332 178 q 448 133 418 103 q 441 203 478 163 q 281 370 355 297 q 206 442 206 442 q 281 519 206 442 q 442 690 356 596 q 448 759 478 731 q 374 751 417 788 q 179 577 331 713 q 28 440 28 440 z "},"=":{"ha":711,"x_min":76,"x_max":635,"o":"m 76 232 l 354 235 l 635 232 l 635 344 l 354 342 l 76 344 l 76 232 m 76 511 l 354 514 l 635 511 l 635 624 l 354 621 l 76 624 l 76 511 z "},">":{"ha":487,"x_min":8,"x_max":459,"o":"m 459 440 q 308 577 459 440 q 113 751 156 713 q 39 759 70 788 q 45 690 8 731 q 206 519 131 596 q 281 442 281 442 q 206 370 281 442 q 46 203 132 297 q 39 133 9 163 q 112 141 69 103 q 307 309 155 178 q 459 440 459 440 z "},"?":{"ha":624,"x_min":0,"x_max":610,"o":"m 123 84 q 151 15 123 44 q 223 -15 179 -15 q 295 15 267 -15 q 323 84 323 44 q 295 154 323 124 q 223 184 267 184 q 151 154 179 184 q 123 84 123 124 m 0 943 l 38 906 q 138 967 76 942 q 278 992 200 992 q 424 939 369 992 q 479 782 479 886 q 438 625 479 681 q 319 569 397 569 q 255 573 294 569 q 196 578 215 576 l 174 554 l 181 419 l 179 302 l 249 302 l 257 501 q 298 494 278 495 q 339 492 317 492 q 533 569 456 492 q 610 780 610 646 q 524 989 610 908 q 301 1069 438 1069 q 113 1031 185 1069 q 0 943 40 993 z "},"@":{"ha":1156,"x_min":56,"x_max":1113,"o":"m 56 518 q 202 128 56 277 q 583 -21 349 -21 q 750 5 672 -21 q 884 75 829 30 l 851 117 q 743 78 813 95 q 587 62 673 62 q 264 194 388 62 q 138 528 139 327 q 255 843 136 728 q 586 958 374 958 q 913 841 792 958 q 1034 562 1034 724 q 984 365 1034 428 q 860 301 935 301 q 820 302 835 301 q 789 312 806 304 l 786 573 q 722 770 785 713 q 551 827 659 827 q 413 798 466 827 q 344 742 359 768 l 376 701 q 439 734 401 720 q 530 749 476 749 q 647 714 609 749 q 683 579 684 680 l 682 406 q 730 276 681 308 q 856 244 779 244 q 1034 328 956 244 q 1113 574 1113 411 q 962 923 1113 790 q 578 1056 812 1056 q 200 899 344 1056 q 56 518 56 742 m 317 395 q 365 280 317 325 q 506 235 413 235 q 664 287 597 235 q 730 394 731 338 l 697 394 q 648 333 690 365 q 547 300 605 300 q 458 326 492 300 q 424 403 424 352 q 497 502 424 467 q 705 555 571 536 l 699 614 q 409 522 501 580 q 317 395 317 465 z "},"[":{"ha":442,"x_min":79,"x_max":397,"o":"m 101 353 l 92 -237 l 79 -251 l 79 -333 l 397 -333 l 397 -251 l 217 -237 l 209 353 l 217 946 l 397 959 l 397 1042 l 79 1042 l 79 960 l 92 946 l 101 353 z "},"\\":{"ha":456,"x_min":-21,"x_max":483,"o":"m -21 1054 l 407 -108 l 483 -87 l 56 1075 l -21 1054 z "},"]":{"ha":442,"x_min":44,"x_max":363,"o":"m 341 353 l 349 946 l 363 960 l 363 1042 l 44 1042 l 44 959 l 224 946 l 233 353 l 224 -237 l 44 -251 l 44 -333 l 363 -333 l 363 -251 l 349 -237 l 341 353 z "},"^":{"ha":915,"x_min":47,"x_max":867,"o":"m 443 1058 q 283 872 443 1058 q 85 643 122 686 q 77 570 47 600 q 147 577 106 540 q 343 772 241 663 q 445 880 445 880 q 560 771 445 880 q 769 576 674 662 q 838 570 809 539 q 829 644 867 601 q 617 873 792 687 q 443 1058 443 1058 z "},"_":{"ha":1006,"x_min":-14,"x_max":1019,"o":"m -14 -333 l 506 -331 l 1019 -333 l 1019 -251 l 506 -233 l -14 -251 l -14 -333 z "},"`":{"ha":711,"x_min":204,"x_max":506,"o":"m 204 923 q 218 889 204 905 q 251 858 233 873 l 410 736 l 506 736 l 355 913 q 314 953 338 934 q 263 973 290 973 q 218 957 231 973 q 204 923 204 940 z "},"{":{"ha":481,"x_min":42,"x_max":474,"o":"m 42 334 l 205 334 l 205 253 q 164 68 205 171 q 122 -117 122 -35 q 183 -285 122 -227 q 353 -344 244 -344 q 424 -341 402 -344 q 471 -336 445 -338 l 471 -258 q 413 -260 435 -260 q 357 -260 391 -260 q 267 -226 300 -260 q 233 -125 233 -193 q 274 50 233 -54 q 314 218 314 155 q 295 313 314 267 q 233 382 277 358 q 291 440 269 397 q 314 550 314 484 q 277 686 314 613 q 240 831 240 760 q 272 931 240 899 q 360 964 303 964 q 416 964 394 964 q 474 963 438 964 l 474 1042 q 427 1046 449 1044 q 356 1049 406 1049 q 189 991 248 1049 q 129 822 129 933 q 167 660 129 740 q 206 497 206 579 q 189 439 206 458 q 133 416 172 419 l 42 409 l 42 334 z "},"|":{"ha":419,"x_min":144,"x_max":276,"o":"m 144 -375 l 276 -326 l 267 -40 l 252 174 l 251 576 l 267 790 l 276 1076 l 144 1028 l 152 790 l 167 576 l 169 174 l 152 -40 l 144 -375 z "},"}":{"ha":481,"x_min":7,"x_max":440,"o":"m 440 334 l 440 409 l 349 416 q 293 439 310 419 q 276 497 276 458 q 314 660 276 579 q 352 822 352 740 q 293 991 352 933 q 125 1049 233 1049 q 54 1046 76 1049 q 7 1042 33 1044 l 7 963 q 65 964 43 964 q 121 964 87 964 q 209 931 178 964 q 241 831 241 899 q 204 686 241 760 q 167 550 167 613 q 190 440 167 484 q 248 382 213 397 q 186 313 204 358 q 167 218 167 267 q 208 50 167 155 q 248 -125 248 -54 q 215 -226 248 -193 q 124 -260 181 -260 q 68 -260 90 -260 q 10 -258 47 -260 l 10 -336 q 58 -341 36 -338 q 128 -344 79 -344 q 298 -285 237 -344 q 359 -117 359 -227 q 318 68 359 -35 q 276 253 276 171 l 276 334 l 440 334 z "},"~":{"ha":711,"x_min":13,"x_max":699,"o":"m 13 417 l 60 373 q 140 428 99 409 q 222 447 180 447 l 472 358 q 614 407 564 358 q 699 528 664 456 l 636 565 q 581 497 613 527 q 508 466 549 466 l 242 560 q 118 521 181 560 q 13 417 56 482 z "}," ":{"ha":444,"x_min":0,"x_max":0,"o":""}}}
